{"title":"Paris, je t'aime (Paris, I Love You) 2006 480p BRRip H.264 AAC","uid":6308397,"size":423285012,"categoryP":"video","categoryS":"movies","magnet":"?xt=urn:btih:8b05da93b87c2f51b74084eab7a6b686e6bbf442&amp;dn=Paris%2C+je+t%5C%27aime+%28Paris%2C+I+Love+You%29+2006+480p+BRRip+H.264+AAC+&amp;tr=udp%3A%2F%2Ftracker.openbittorrent.com%3A80&amp;tr=udp%3A%2F%2Fopen.demonii.com%3A1337&amp;tr=udp%3A%2F%2Ftracker.coppersurfer.tk%3A6969&amp;tr=udp%3A%2F%2Fexodus.desync.com%3A6969","seeders":17,"leechers":4,"uploader":"muk0690","files":7,"time":1302396121,"description":"Movie Info: http://www.imdb.com/title/tt0401711/\n\n\nGeneral\nComplete name                    : Paris, je t'aime (Paris, I Love You) 2006 480p BRRip H.264 AAC MukE (Pure RG)\nFormat                           : MPEG-4\nFormat profile                   : Base Media\nCodec ID                         : isom\nFile size                        : 401 MiB\nDuration                         : 2h 0mn\nOverall bit rate                 : 465 Kbps\nEncoded date                     : UTC 2011-04-03 07:39:05\nTagged date                      : UTC 2011-04-03 07:39:05\n\nVideo\nID                               : 1\nFormat                           : AVC\nFormat/Info                      : Advanced Video Codec\nFormat profile                   : &lt;a class=&quot;__cf_email__&quot; href=&quot;/cdn-cgi/l/email-protection&quot; data-cfemail=&quot;96defff1fed6daa2b8a4&quot;&gt;[email&amp;#160;protected]&lt;/a&gt;&lt;script cf-hash='f9e31' type=&quot;text/javascript&quot;&gt;\n/* &lt;![CDATA[ */!function(){try{var t=&quot;currentScript&quot;in document?document.currentScript:function(){for(var t=document.getElementsByTagName(&quot;script&quot;),e=t.length;e--;)if(t[e].getAttribute(&quot;cf-hash&quot;))return t[e]}();if(t&amp;&amp;t.previousSibling){var e,r,n,i,c=t.previousSibling,a=c.getAttribute(&quot;data-cfemail&quot;);if(a){for(e=&quot;&quot;,r=parseInt(a.substr(0,2),16),n=2;a.length-n;n+=2)i=parseInt(a.substr(n,2),16)^r,e+=String.fromCharCode(i);e=document.createTextNode(e),c.parentNode.replaceChild(e,c)}}}catch(u){}}();/* ]]&gt; */&lt;/script&gt;\nFormat settings, CABAC           : Yes\nFormat settings, ReFrames        : 3 frames\nFormat settings, GOP             : N=16\nCodec ID                         : avc1\nCodec ID/Info                    : Advanced Video Coding\nDuration                         : 2h 0mn\nBit rate mode                    : Variable\nBit rate                         : 398 Kbps\nMaximum bit rate                 : 2 178 Kbps\nWidth                            : 800 pixels\nHeight                           : 440 pixels\nDisplay aspect ratio             : 16:9\nFrame rate mode                  : Constant\nFrame rate                       : 23.976 fps\nColor space                      : YUV\nChroma subsampling               : 4:2:0\nBit depth                        : 8 bits\nScan type                        : Progressive\nBits/(Pixel*Frame)               : 0.047\nStream size                      : 343 MiB (86%)\nWriting library                  : x264 core 114 r1913 5fd3dce\n\n\nAudio\nID                               : 2\nFormat                           : AAC\nFormat/Info                      : Advanced Audio Codec\nFormat version                   : Version 4\nFormat profile                   : LC\nFormat settings, SBR             : No\nCodec ID                         : 40\nDuration                         : 2h 0mn\nBit rate mode                    : Variable\nBit rate                         : 63.7 Kbps\nMaximum bit rate                 : 122 Kbps\nChannel(s)                       : 2 channels\nChannel positions                : Front: L R\nSampling rate                    : 48.0 KHz\nCompression mode                 : Lossy\nStream size                      : 54.8 MiB (14%)\n\nLanguage                         : French\n\nSubtitles                        : English\n","torrent":{"xt":"urn:btih:8b05da93b87c2f51b74084eab7a6b686e6bbf442","amp;dn":"Paris%2C+je+t%5C%27aime+%28Paris%2C+I+Love+You%29+2006+480p+BRRip+H.264+AAC+","amp;tr":["udp%3A%2F%2Ftracker.openbittorrent.com%3A80","udp%3A%2F%2Fopen.demonii.com%3A1337","udp%3A%2F%2Ftracker.coppersurfer.tk%3A6969","udp%3A%2F%2Fexodus.desync.com%3A6969"],"infoHash":"8b05da93b87c2f51b74084eab7a6b686e6bbf442","infoHashBuffer":{"type":"Buffer","data":[139,5,218,147,184,124,47,81,183,64,132,234,183,166,182,134,230,187,244,66]},"announce":[],"urlList":[]}}